<svg xmlns="http://www.w3.org/2000/svg" width="1024" height="1024"><path d="M1074.083 523.161c.485-10.19-3.397-18.925-9.705-25.718L970.24 402.82l.971-216.906c-.485-1.456-.971-3.882-1.456-5.823 0-.485 0-1.456-.485-1.941-.485-.971-.971-2.427-.971-3.397-.485-1.456-.485-2.427-.971-3.882-.485-.485-.971-1.456-.971-1.941-.485-1.456-1.456-2.427-1.941-3.882l-.971-1.456c-.971-1.456-1.941-2.427-2.912-3.397l-1.456-1.456c-1.456-.971-2.427-2.427-3.882-3.397-.971-.485-1.456-.971-2.427-1.456l-1.456-.485c-.485-.485-1.456-.971-2.427-1.456-2.912-1.456-6.793-1.941-10.676-2.427h-80.066c-8.735 0-16.984 3.397-23.292 9.705s-9.705 14.557-9.705 23.292c0 17.954 15.043 32.997 32.997 32.997h45.128V414.95c0 2.912 0 5.823.485 8.249 1.456 10.19 7.279 18.44 15.043 23.777l3.882 2.912 72.302 72.302-80.551 80.551c-3.882 3.397-6.793 7.764-8.735 12.132-.971 1.941-.971 3.397-1.456 5.337l-.485 1.456c-.485 2.427-.485 5.823-.485 8.735v202.348h-45.128c-18.44 0-32.997 14.072-32.997 32.026 0 8.735 3.397 16.984 9.705 22.806 6.308 6.308 14.557 9.705 23.292 9.705l78.61-.485c4.367 0 8.249-.971 12.132-2.427l4.367-2.427c.485-.485 1.456-.485 1.941-.971.971-.971 2.427-1.941 3.882-3.397l1.456-1.456c.971-.971 1.941-2.427 2.912-3.882l.971-.971c.971-1.456 1.456-2.912 1.941-3.882l.485-1.456c.485-.971.485-2.427.971-3.397 0-.971.485-1.941.971-2.912s.485-2.427.971-3.397v.485c0-2.427.971-4.367 1.456-6.308l-.971-218.847 93.653-94.623c6.793-5.823 10.19-14.072 10.19-23.777zM712.572 26.751c-3.882-2.912-9.705-6.793-15.043-6.793h-2.427L480.622-.423c-.485 0-.971 0-1.456.485-.485 0-.971 0-1.456.485l-4.367 1.456c-1.455.485-2.427.485-3.882.971-.485 0-1.456.485-1.941.971l-3.882 1.941c-1.456.485-2.912 1.941-3.882 2.912l-1.456.485c-.971.485-1.941 1.941-3.397 3.397l-.971.971c-.971 1.456-1.941 2.912-2.427 3.882l-.485 1.456c-.485 1.456-.971 2.427-1.456 3.882 0 .485-.485 1.456-.971 1.941v.971l-.485 1.941c0 .971-.485 1.941-.485 2.912L374.35 867.69c-1.456 9.22.971 18.44 6.793 25.233l96.079 116.46c.485.485.485 1.456.971 1.941 6.308 7.279 15.043 11.646 24.262 11.646 7.279 0 14.557-2.427 20.381-7.764l115.975-99.476c.971-.971 2.427-2.427 3.882-4.367l.485-.971c3.882-5.337 5.823-11.646 6.308-17.954l56.289-648.778.485-1.941c.485-2.427.971-3.882.971-5.337v-7.278l15.528-174.205c1.941-10.676-2.427-21.351-10.19-28.145zm-121.797 829.29L440.833 842.94l51.437-593.459 149.942 13.101-51.437 593.459zm56.289-657.997l-149.942-13.101 10.676-116.46L657.74 81.584l-10.676 116.46zM216.163 832.75h-45.128V630.887c0-2.912 0-6.308-.485-8.735l-.485-1.456c-.485-1.456-.971-3.397-1.456-5.337-1.941-4.367-4.852-8.735-8.735-12.132l-80.551-80.551 72.302-72.302 3.882-2.912c7.764-4.852 13.101-13.101 15.043-23.777.485-2.427.485-5.337.485-8.735V215.512h45.128c18.44 0 32.997-14.557 32.997-32.997 0-8.735-3.397-16.984-9.705-23.292s-14.557-9.705-23.292-9.705h-80.066c-3.882 0-7.764.971-10.676 2.427-.971.485-1.941.971-2.427 1.456h-1.456c-.971.485-1.456.971-2.427 1.456-1.456.971-2.912 1.941-3.882 3.397l-1.456 1.456c-.971.971-1.941 2.427-2.912 3.397l-.971 1.456c-.485.971-1.456 2.427-1.941 3.882-.971.485-.971 1.456-1.456 1.941-.485.971-.971 2.427-.971 3.882-.485.971-.485 2.427-.971 3.397 0 .485-.485 1.456-.485 1.941 0 2.427-.485 4.367-1.456 5.823l.971 216.906-93.653 95.108c-6.793 6.793-10.19 15.043-9.705 25.718 0 9.22 2.912 17.954 9.22 24.262l93.653 94.623-.485 218.362c.485 1.456.971 3.882 1.456 6.308v-.485c.485.971.485 2.427.971 3.397s.485 1.941.971 2.912c.485.971.485 2.427.971 3.397l.485 1.456c.485 1.456 1.456 2.912 1.941 3.882l.971.971c.971 1.456 1.941 2.912 2.912 3.882l1.456 1.456c1.456 1.456 2.912 2.427 3.882 3.397.485.485 1.456.971 1.941.971l4.367 2.427c3.882 1.456 8.249 2.427 12.132 2.427l78.61.485c8.735 0 17.469-3.397 23.292-9.705 6.308-6.308 9.705-14.072 9.705-22.806.971-17.469-13.587-32.026-32.512-32.026z"/></svg>